<?xml version="1.0" encoding="UTF-8" standalone="no"?>
<!-- Created with Inkscape (http://www.inkscape.org/) -->

<svg
   width="375.65143"
   height="329.35883"
   viewBox="0 0 375.65143 329.35883"
   version="1.1"
   id="svg1"
   xml:space="preserve"
   inkscape:version="1.3.2 (9e3d6414e7, 2024-01-14, custom)"
   sodipodi:docname="rock.svg"
   xmlns:inkscape="http://www.inkscape.org/namespaces/inkscape"
   xmlns:sodipodi="http://sodipodi.sourceforge.net/DTD/sodipodi-0.dtd"
   xmlns="http://www.w3.org/2000/svg"
   xmlns:svg="http://www.w3.org/2000/svg"><sodipodi:namedview
     id="namedview1"
     pagecolor="#ffffff"
     bordercolor="#000000"
     borderopacity="0.25"
     inkscape:showpageshadow="2"
     inkscape:pageopacity="0.0"
     inkscape:pagecheckerboard="0"
     inkscape:deskcolor="#d1d1d1"
     inkscape:document-units="px"
     inkscape:zoom="1.4142136"
     inkscape:cx="125.865"
     inkscape:cy="167.5843"
     inkscape:window-width="2560"
     inkscape:window-height="1296"
     inkscape:window-x="0"
     inkscape:window-y="0"
     inkscape:window-maximized="1"
     inkscape:current-layer="layer1" /><defs
     id="defs1"><inkscape:path-effect
       effect="fillet_chamfer"
       id="path-effect12"
       is_visible="true"
       lpeversion="1"
       nodesatellites_param="F,0,0,1,0,0,0,1 @ F,0,0,1,0,0,0,1 @ F,0,0,1,0,0,0,1 @ F,0,0,1,0,0,0,1 @ F,0,0,1,0,0,0,1 @ F,0,0,1,0,0,0,1 @ F,0,0,1,0,0,0,1"
       radius="0"
       unit="px"
       method="auto"
       mode="F"
       chamfer_steps="1"
       flexible="false"
       use_knot_distance="true"
       apply_no_radius="true"
       apply_with_radius="true"
       only_selected="false"
       hide_knots="false" /><clipPath
       clipPathUnits="userSpaceOnUse"
       id="clipPath37"><path
         id="path38"
         style="fill:#ff0000;fill-opacity:1;fill-rule:nonzero;stroke:none"
         d="M 0,0 V 512 H 512 V 0 Z m 142.40625,5.8808594 c 0.11287,0.050468 0.24392,0.1289402 0.33789,0.1503906 0.30413,0.077867 0.61346,0.1328097 0.91797,0.2089844 1.3749,0.024957 3.58184,0.6339774 7.39648,1.4140625 7.64575,1.5958569 15.31167,3.0895161 22.97461,4.5996091 11.05285,2.116345 22.12105,4.151569 33.19532,6.152344 13.368,2.294892 26.78527,4.291724 40.19531,6.322266 12.3952,1.806777 24.83438,3.284483 37.30273,4.476562 10.10237,1.032133 20.2368,1.651006 30.37891,2.113281 8.27524,0.202892 16.53959,0.624128 24.80664,1.029297 4.29111,0.206567 8.58594,0.360466 12.87891,0.521485 9.75563,0.631496 4.63083,5.21514 0.98437,18.195312 8.59627,0.214404 17.19513,0.389732 25.79297,0.519531 15.24426,0.213435 30.49075,0.290214 45.73633,0.345704 10.56777,0.1035 21.13894,-0.07797 31.70508,0.148437 5.19669,0.277254 10.43285,0.193657 15.59765,0.882813 8.69243,2.201874 4.52521,0.43442 1.35938,21.80664 -0.12795,0.863756 -1.69086,0.443158 -2.54883,0.605469 -2.46332,0.466004 -5.00463,0.626126 -7.49805,0.830078 -7.68636,0.526965 -15.39855,0.560532 -23.09961,0.638672 -8.03175,0.06697 -16.06368,0.06788 -24.0957,0.08398 0.57083,1.9544 -0.75631,5.529054 -2.41406,12.775391 1.0058,0.503007 2.03243,0.962466 3.02539,1.492187 5.78314,3.252259 9.501,5.928138 10.71484,13.162115 0.005,0.0324 -0.008,0.0653 -0.004,0.0977 1.34142,0.60535 2.68069,1.21763 4.00585,1.86133 2.9092,1.47463 5.72512,3.11689 8.29883,5.13282 2.2773,1.83547 4.41228,3.8432 6.03711,6.29882 1.66433,2.56581 3.0265,5.30951 3.41016,8.38868 0.13597,1.82623 0.2309,3.63073 0.0351,5.45703 -0.16344,1.90012 -0.42191,3.79597 -0.98437,5.625 -0.67852,2.08924 -1.50997,4.12491 -2.67578,5.99609 -1.01406,1.48221 -2.1231,3.02971 -3.4043,4.17969 0.66038,-0.80274 -0.22249,0.27835 -0.64844,0.70508 -1.00443,1.00628 -2.03915,1.85786 -3.20312,2.66015 -0.27818,0.19175 -0.56804,0.36701 -0.85156,0.55078 -1.62663,0.92816 -3.30496,1.70468 -5.07813,2.3086 -1.74011,0.53796 -1.67651,0.44978 -3.26562,1.04492 -1.39281,0.38408 -2.78469,0.72335 -4.1836,1.08594 -1.19902,0.17124 -2.37124,0.3371 -3.57422,0.4082 -0.9358,0.14211 -1.83701,0.44598 -2.76367,0.64453 -1.3066,0.19741 -2.60159,0.35415 -3.91406,0.48047 -1.38731,0.2895 -3.22979,0.84652 -4.81641,0.85352 -0.83258,0.0574 -1.6752,0.11201 -2.49218,0.27734 -1.42054,0.19753 -2.81635,0.74808 -4.2754,0.76758 -0.91291,0.0971 -1.78959,0.39402 -2.67578,0.61719 -1.49579,0.32474 -1.36384,0.2461 -2.125,0.45117 -1.26689,0.4263 -2.52458,0.87787 -3.82226,1.20117 -1.4211,0.45557 -2.85036,0.8838 -4.26953,1.29492 -1.84422,0.57151 -1.1282,0.45562 -0.91407,0.24024 0.22727,-0.22867 -2.78894,1.54216 -1.00781,0.44921 -2.99555,1.29757 0.73041,-0.50932 -1.80078,0.89649 -1.29565,0.78804 -2.63846,1.46933 -3.98047,2.1543 -0.44885,0.25159 -0.43973,0.21558 -0.49804,0.22265 -0.66254,0.5834 -0.63865,0.55697 -1.32618,1.125 -1.3255,1.03813 -2.75102,2.0738 -4.21679,2.79297 0.13171,-0.0913 0.52771,-0.36459 0.39453,-0.27539 -1.56131,1.04548 -0.94016,0.56309 -2.16602,1.46094 -2.13515,1.21301 -1.54864,0.86345 -3.4707,1.89453 0.1253,-0.0808 0.50402,-0.32009 0.37695,-0.24219 -1.60522,0.98461 -1.59239,0.91028 -2.86914,1.64453 -6.20586,2.36201 1.21083,-0.46292 -3.89648,1.46094 -0.84871,0.17054 -1.69641,0.35017 -2.54688,0.51172 -0.1359,0.0262 -0.53234,0.099 -0.41406,0.0273 -0.0294,0.008 -0.31993,0.10421 -0.35156,0.11328 -2.25101,0.64367 -1.66138,0.5238 -4.41211,0.75586 -0.17419,0.0151 -0.3506,-0.005 -0.52539,-0.008 -1.3417,-0.0283 -2.68457,-0.0675 -4.01758,-0.23437 -3.89916,-0.59009 -7.36543,-2.16096 -9.72266,-5.50977 -0.60638,-1.41989 -1.34564,-2.788 -1.81836,-4.25781 -0.78815,-2.45051 -0.10178,-5.22555 0.74805,-7.59961 0.0393,-0.25041 0.0651,-0.50959 0.16211,-1.03907 0.89742,-3.54535 2.59124,-6.68804 5.7207,-8.75976 0.0993,-1.19373 0.18426,-2.38957 0.44531,-3.56055 0.10222,-0.44208 0.22774,-0.90963 0.34571,-1.37304 -0.44607,0.16244 -0.89149,0.32666 -1.33789,0.48828 -1.65684,0.55252 -3.27347,1.15575 -4.91797,1.75781 -2.56972,0.65118 -5.1911,1.2455 -7.86524,0.79492 -3.72053,-0.64703 -7.0648,-2.15016 -9.4082,-5.27148 -0.57778,-1.07913 -1.2314,-2.1215 -1.73242,-3.23828 -0.80653,-1.79776 -0.78011,-3.86734 -0.78711,-5.80079 0.001,-1.01303 0.002,-2.02598 0.006,-3.03906 0.005,-1.08161 0.0115,-2.16286 0.041,-3.24414 0.0474,-1.49099 0.12252,-2.98584 0.38671,-4.45703 0.0404,-0.18964 0.10755,-0.36695 0.15235,-0.55469 -5.27724,-1.30663 -10.49155,-2.84479 -15.61328,-4.66992 -0.85431,-0.29256 -1.66842,-0.67354 -2.51172,-0.99023 0.23927,0.74208 0.43425,1.4969 0.67578,2.23828 2.87684,5.21003 4.37088,7.03609 2.53516,7.875 0.006,0.0189 0.0117,0.0378 0.0176,0.0566 -2.55292,1.05401 -5.28942,1.45797 -7.97656,2.01172 -3.57767,0.85666 -7.17556,1.57842 -10.8125,2.13086 -4.75104,0.67183 -9.48307,1.43951 -14.18945,2.37304 -6.52738,1.3145 -13.0899,2.42664 -19.66602,3.46485 -7.1882,1.12103 -14.39562,2.11185 -21.5957,3.15234 -4.19465,0.57616 -2.16947,0.30305 -6.07813,0.82227 -3.63906,0.48341 -6.69897,0.22168 -9.24804,-0.48828 -1.17003,0.20469 -2.3418,0.40031 -3.51172,0.60546 -10.19002,1.81322 -20.4079,3.46758 -30.57617,5.40039 -5.16753,0.98572 -10.31649,2.06745 -15.47657,3.09375 0.13682,0.83923 0.23957,1.68499 0.30664,2.53321 0.20841,1.91439 0.0307,3.76778 -0.16406,5.67969 -0.91359,3.17837 -0.32525,1.40326 -1.51953,4.76171 -1.84593,3.96174 -5.27924,6.14837 -9.32812,7.27735 -1.59637,0.37054 -3.23501,0.47631 -4.86719,0.54101 -1.10036,0.0372 -2.20185,0.0457 -3.30274,0.0527 -1.01603,0.005 -2.03083,0.005 -3.04687,0.006 -2.10938,0.0987 -4.18317,-0.24086 -6.18164,-0.91407 -1.03401,-0.25999 0.43667,0.0439 -0.10742,0.0137 -0.65172,-0.0492 -1.30572,-0.0603 -1.95899,-0.0723 -1.55784,0.0453 -3.07812,-0.10278 -4.6289,-0.26758 -0.91927,-0.15944 -1.80581,-0.47679 -2.72657,-0.60937 -1.20458,-0.0654 -2.37754,-0.23243 -3.57812,-0.40235 -0.83322,-0.16751 -1.63874,-0.47783 -2.47656,-0.59765 -0.57184,-0.0671 -1.1494,-0.0855 -1.72461,-0.10352 -1.69732,0.0406 -3.31589,-0.46879 -4.94141,-0.85156 -0.43247,-0.0793 -0.87496,-0.0998 -1.31445,-0.12109 -0.82846,-0.0401 -1.65907,-0.0496 -2.48828,-0.0586 -0.15344,-0.001 -0.30642,0.0128 -0.45899,-0.004 -2.07348,-0.22203 -3.11574,-0.54695 -4.98633,-1.05274 -0.10102,-0.0273 0.19623,0.0687 0.29493,0.10352 -0.0187,-0.002 -0.0379,-0.004 -0.0567,-0.006 -2.57005,-0.34113 -4.73105,-0.99286 -6.55468,-1.83985 -4.95191,0.97917 -9.903937,1.97532 -14.898441,2.69727 -4.305255,0.56512 -8.632035,1.11269 -12.982421,1.08789 -18.669675,-0.10661 -21.283214,-16.20797 -7.94336,-20.77344 -5.171443,-3.70142 -5.517455,-12.63907 4.070313,-20.50976 4.674486,-3.83736 9.874174,-6.93977 15.169921,-9.82618 8.606852,-4.68338 17.868238,-7.88914 27.257818,-10.57421 10.99891,-3.00594 22.22861,-5.0187 33.50195,-6.66407 C 136.83812,99.133423 125.78901,98.049478 114.77143,96.743767 108.04261,95.940904 101.31197,95.028431 94.755809,93.282829 90.709708,92.13953 87.34442,90.38913 84.742138,86.880485 83.941387,85.800844 83.230055,84.550277 83.048778,83.218376 82.723992,80.83207 83.189476,78.40495 83.259716,75.997673 85.35707,70.50618 89.99039,67.748219 95.015575,65.400017 c 0.151743,-0.06354 0.312615,-0.101784 0.464844,-0.164063 -1.212432,-2.212859 1.11726,-6.318777 3.833984,-14.441406 -1.980268,-0.277669 -3.952229,-0.604256 -5.876953,-1.083984 -0.956676,-0.23845 -2.774809,0.194041 -2.849609,-0.789063 -0.542691,-7.132909 0.773305,-14.284685 1.160156,-21.427734 4.508112,-0.558597 9.033573,0.03272 13.558593,0.148437 9.98651,0.497814 19.96185,1.14922 29.93555,1.857422 4.36296,0.275975 8.72088,0.622991 13.08008,0.947266 0.63381,-0.08124 1.26835,-0.154928 1.9082,-0.199219 -1.0909,-0.23116 -2.17741,-0.482662 -3.26953,-0.708985 -2.32941,-0.450615 -4.63033,-1.019236 -6.93555,-1.574218 -0.16251,-0.03797 -0.48491,-0.102286 -0.62891,-0.142578 -0.5852,-0.142692 -1.17746,-0.253528 -1.76171,-0.400391 -6.4e-4,0.0023 -8.4e-4,0.0036 -0.002,0.0059 -0.0296,0.105659 -0.21364,-0.05241 -0.32031,-0.07813 0.10678,0.02697 0.21546,0.04542 0.32227,0.07227 0.0588,-0.209647 0.0781,-0.345 0.13476,-0.550781 -0.98143,-1.48606 0.75998,-5.031285 3.04492,-14.748047 0.36629,-2.683774 0.58244,-4.4312689 1.14649,-5.2207032 0.075,-0.3729846 0.14346,-0.6129706 0.21875,-1 0.0184,-0.094622 0.11369,-0.071953 0.22656,-0.021484 z M 99.486328,71.705078 c 0.170564,0.06996 0.349376,0.118568 0.525392,0.173828 -0.06766,-0.05397 -0.13824,-0.105433 -0.205079,-0.160156 -0.08264,-0.06766 -0.419133,-0.0542 -0.320313,-0.01367 z m 369.023442,2.861328 c 0.22115,0.04007 0.33864,0.06793 0.58984,0.113282 0.46449,-0.137388 0.13645,-0.112154 -0.58984,-0.113282 z M 243.69336,114.55273 c -10.09373,0.60708 -20.18955,1.17668 -30.28516,1.75196 -0.90901,0.31381 -1.8174,0.62876 -2.65234,1.09375 -2.07308,1.08127 -4.06445,2.30872 -6.07227,3.5039 -0.26854,0.14696 -0.51542,0.32756 -0.78125,0.47852 2.61974,-0.45234 5.23613,-0.9228 7.85352,-1.38867 9.71509,-1.70432 19.43542,-3.39529 29.16406,-5.02149 0.92255,-0.15209 1.85036,-0.26938 2.77344,-0.41797 z m 151.73047,3.18165 c -1.00764,3.98565 -2.86946,7.8447 -3.99805,11.8125 -3.94589,1.54673 -8.22836,1.43988 -12.39648,1.3164 -1.05087,-0.0509 -2.09358,-0.19292 -3.14063,-0.28516 -0.1832,2.28839 -0.98631,4.44205 -2.08398,6.67383 -1.19049,1.7078 -0.18649,0.34595 -1.47852,2.24414 -0.098,0.144 0.19672,-0.2878 0.29492,-0.43164 -0.11969,0.14399 -0.29459,0.51369 -0.46093,0.8418 9.7e-4,0.29781 -0.0408,0.69386 -0.0606,1.00977 -0.0268,1.62685 -0.5275,3.17832 -0.89844,4.74218 -0.084,0.44315 -0.10475,0.89716 -0.12695,1.34766 0.001,0.39263 -0.0944,0.76972 -0.14453,1.1543 0.46736,-0.28598 0.92412,-0.58609 1.40234,-0.85547 0.90257,-0.58424 2.25904,-1.08984 3.01367,-1.57813 1.11558,-0.78139 2.32909,-1.41597 3.57422,-1.96289 0.79367,-0.34861 1.36475,-0.48236 0.88086,-0.36523 1.32771,-0.79743 2.88447,-1.04209 4.29883,-1.60547 1.41381,-0.38954 2.786,-0.807 4.17187,-1.26172 1.86689,-0.50954 2.11074,-0.59929 3.29102,-1.02344 -0.63804,-0.16384 5.60384,-1.22607 4.28125,-1.08984 1.52531,-0.45556 3.08891,-0.7588 4.66016,-1.00195 0.82589,-0.10715 0.77625,-0.10746 1.65039,-0.18946 0.009,-8.5e-4 0.0169,-7.3e-4 0.0273,-0.002 0.0979,-0.0402 -0.0676,-0.0211 0.65625,-0.20313 1.97719,-0.47524 4.00596,-0.67377 6.0293,-0.82617 0.03,-0.002 0.0598,-0.004 0.0898,-0.006 -0.0338,5.2e-4 -0.12402,0.009 -0.0937,0 0.81077,-0.23841 1.65922,-0.3865 2.48438,-0.55078 1.1629,-0.20326 2.33729,-0.32638 3.51367,-0.41992 1.23958,-0.38128 2.53338,-0.6086 3.81055,-0.81445 0.37487,-0.12553 5.81151,-0.51298 2.51562,-0.22071 -1.40954,0.21028 4.67277,-1.07728 1.83203,-0.47461 0.0292,-0.0155 4.71862,-1.3432 2.73633,-0.86718 0.57692,-0.14597 1.62591,-0.66978 0.83789,-0.32227 -0.13605,0.12685 -0.48246,0.46957 0.70313,-0.76562 0.0481,-0.0444 0.0966,-0.0883 0.14453,-0.13282 0.0343,-0.0467 0.0355,-0.0444 0.0762,-0.0977 0.0657,-0.25384 0.23192,-0.47633 0.29101,-0.73242 0.0526,-0.26772 0.0744,-0.61076 0.0957,-0.9668 1.8e-4,-0.001 -1.9e-4,-0.006 0,-0.008 -0.33187,-0.39719 -0.66498,-0.75469 -1.11133,-1.04493 -1.42184,-1.08927 -2.95425,-1.99608 -4.56445,-2.77343 -2.65099,-1.22965 -5.27384,-2.53354 -8.0293,-3.51563 -3.51665,-1.25436 -7.13852,-2.16781 -10.75391,-3.08398 -2.34779,-0.55248 -4.69767,-1.11591 -7.05469,-1.64063 -0.32222,-0.007 -0.64451,-0.0165 -0.96679,-0.0234 z m -231.59375,2.06054 c -0.39893,0.043 -0.79652,0.0982 -1.19531,0.14258 0.0613,0.17097 0.12387,0.29855 0.18554,0.48828 0.34623,-0.19298 0.67379,-0.41971 1.00977,-0.63086 z m -22.71289,3.21289 c -6.95787,1.20851 -13.87621,2.62901 -20.69727,4.47657 -7.8511,2.19755 -15.5889,4.8709 -22.785154,8.75585 -4.160648,2.22902 -8.236779,4.65652 -11.896485,7.65625 -0.701022,0.57462 -1.385945,1.0185 -2.074219,1.48829 0.769439,-0.0981 1.541042,-0.1834 2.308594,-0.28516 5.562132,-0.82183 11.084174,-1.92391 16.597654,-3.02539 7.54191,-1.5387 15.06026,-3.19641 22.57813,-4.84766 5.89562,-1.32665 11.79111,-2.65031 17.6875,-3.9707 -0.01,-0.0294 0.0234,0.0154 -0.0156,-0.12109 -0.37274,-1.17077 -0.87188,-2.45752 -1.09179,-3.53516 -0.62379,-2.16836 -0.86957,-4.38374 -0.61133,-6.5918 z m 0.66797,3.7168 c -0.0617,-0.21039 -0.022,0.63291 0.19726,0.62891 0.007,-1.3e-4 0.013,1.2e-4 0.0195,0 -0.0639,-0.2126 -0.15441,-0.41609 -0.21679,-0.62891 z m 240.52343,2.41992 c 0.009,0.007 0.0241,0.0124 0.0332,0.0195 0.1703,0.13348 0.79629,0.31946 0.61914,0.19532 -0.01,-0.007 -0.6038,-0.20199 -0.625,-0.20899 -0.009,-0.001 -0.0181,-0.004 -0.0274,-0.006 z m -30.35351,18.76758 c 0.2627,-0.18788 -0.52709,0.37246 -0.79102,0.55859 -0.0587,0.06 -0.0664,0.0878 -0.12304,0.14649 0.31114,-0.21796 0.58376,-0.46886 0.91406,-0.70508 z m -1.4668,1.41406 c 0.0235,-0.0128 -0.0672,0.0338 -0.0723,0.0352 -0.002,0.002 -0.002,0.004 -0.004,0.006 0.0253,-0.0138 0.0509,-0.0272 0.0762,-0.041 z m -202.32422,5.41992 c 0.12216,0.25877 0.24503,0.51858 0.36719,0.77735 0.002,0.001 0.006,-0.001 0.008,0.002 0.0697,0.10456 0.26728,0.42756 0.20508,0.31836 -0.14143,-0.24837 -0.37309,-0.70392 -0.58008,-1.09766 z m 154.18555,98.26172 c 2.2482,0.005 4.49607,0.007 6.74414,0.0332 1.85161,0.0287 3.70449,0.0645 5.55273,0.1875 1.64199,0.12131 3.27883,0.29017 4.90821,0.52929 1.40919,0.1419 2.81133,0.32988 4.19336,0.64649 1.31368,0.23446 2.61154,0.54003 3.87304,0.98047 0.89185,0.26866 1.8016,0.4752 2.67579,0.80078 1.09215,0.35563 2.1527,0.81098 3.16796,1.34765 0.17078,0.10851 1.6003,0.93187 1.08008,0.67383 0.0198,0.0115 0.0828,0.0412 0.0606,0.0352 -0.0483,-0.0127 -0.18583,-0.0778 -0.14063,-0.0566 0.87568,0.41068 1.69876,0.89441 2.38282,1.58398 0.0142,0.009 0.0288,0.0168 0.043,0.0254 -0.0324,-0.0313 -0.0642,-0.064 -0.0996,-0.0918 -1.7024,-1.33701 1.08436,0.72121 0.25781,0.1875 -0.0517,-0.0334 -0.10557,-0.0638 -0.15821,-0.0957 0.0228,0.022 0.0475,0.0425 0.0703,0.0645 0.81352,0.50274 1.57162,1.07112 2.21679,1.78906 -0.0464,-0.0483 -0.0891,-0.0995 -0.13867,-0.14453 -1.38385,-1.25548 1.58673,1.44321 0.3125,0.32617 0.54254,0.47304 1.0808,0.97105 1.48828,1.57031 0.23922,0.23863 0.43706,0.43888 0.48828,0.50586 0.60527,0.47628 2.0609,1.67469 0.45508,0.42578 0.51968,0.35063 0.36629,0.23921 0.92383,0.67774 0.004,0.003 0.008,0.005 0.0117,0.008 0.17232,0.15463 0.34296,0.30681 0.55273,0.34961 0.21584,0.16766 0.60153,0.45613 0.86329,0.6582 0.17009,0.0776 0.54348,0.23419 0.33203,0.16602 1.04433,0.38735 0.69993,0.31623 1.82031,0.6914 0.77806,0.34749 1.13607,0.57332 1.875,0.89844 0.16562,0.0954 1.25124,0.52038 0.74023,0.36719 0.92371,0.31575 0.77533,0.31977 1.76172,0.57617 0.83276,0.29245 1.64889,0.63023 2.45117,0.99805 0.26043,0.13781 0.813,0.32061 1.20704,0.52343 0.90878,0.33765 1.67851,0.73491 2.51171,1.16602 0.44525,0.26419 0.93508,0.4602 1.36329,0.75781 0.45779,0.24704 0.9178,0.53076 1.26757,0.74414 0.5937,0.28269 0.76734,0.42082 0.97461,0.55274 -0.012,-0.0646 0.19066,0.0847 0.36133,0.20117 0.0148,0.004 0.0305,0.007 0.043,0.0137 0.0373,0.0204 0.0671,0.0416 0.10742,0.0684 0.0237,0.0157 0.0838,0.0541 0.0625,0.041 -0.0211,-0.0129 -0.007,-0.003 -0.0273,-0.0156 0.3242,0.23738 0.62642,0.45916 0.42773,0.20117 0.54126,0.33007 1.11629,0.60513 1.62891,0.98242 0.52204,0.33331 1.02407,0.69289 1.51562,1.06836 0.85033,0.4899 1.73688,0.9181 2.53321,1.49805 0.62566,0.43281 1.27169,0.83241 1.89843,1.26367 0.57227,0.35265 1.12818,0.73288 1.72852,1.03711 1.20566,0.65657 2.29843,1.46899 3.30859,2.39844 0.56351,0.54595 1.13016,1.08991 1.71485,1.61328 0.50842,0.44661 1.0297,0.87473 1.5957,1.24805 0.92754,0.63481 1.82493,1.31174 2.71484,1.99804 0.64564,0.53236 1.30377,1.04483 2.00977,1.4961 0.64663,0.47503 1.33829,0.87834 2.01758,1.30469 0.69907,0.48286 1.3513,1.02089 2.05469,1.49609 0.76796,0.50802 1.56755,1.04772 2.20117,1.70508 0.98487,0.67881 1.93779,1.4036 2.85156,2.17578 0.80439,0.733 1.61145,1.46645 2.32227,2.29297 0.97627,0.96019 1.87971,1.99489 2.72656,3.07031 1.00095,1.47668 1.89548,3.02224 2.00976,4.85156 0.0218,2.29238 -0.67129,4.08634 -2.43945,5.54688 -0.3456,0.28546 -0.73834,0.52463 -1.1582,0.68164 -0.66218,0.24763 -1.37121,0.34631 -2.05664,0.51953 -0.95299,-0.004 -1.86569,-0.14071 -2.74805,-0.4043 -0.005,0.0415 -0.003,0.0835 -0.008,0.125 -0.12573,0.91588 -0.37277,1.80829 -0.74024,2.6543 -0.0171,0.0574 -0.0178,0.0735 -0.0293,0.10937 -0.28387,0.88903 -0.64567,1.6682 -1.22461,2.41407 -0.40905,0.47652 -0.55431,0.57902 -0.72852,0.73633 -0.26524,0.32402 -0.96004,0.9283 -1.01172,0.9746 1.61744,-1.3927 -1.66061,1.45335 -0.49414,0.41016 -0.117,0.10534 -0.70562,0.61526 -0.91797,0.7793 -0.24913,0.40593 -0.58582,0.96575 -0.54687,1.00195 -0.4979,0.84052 -0.93182,1.71567 -1.35547,2.5957 -0.68201,1.50409 -1.42366,2.97973 -2.21094,4.43164 -0.77781,1.39716 -1.42158,2.85939 -2.1289,4.29297 -0.88259,1.96278 -1.79758,3.9117 -2.72071,5.85547 -1.17965,2.20069 -2.37295,4.41437 -3.98633,6.33594 -1.73799,1.89137 -3.60255,3.65856 -5.94726,4.7832 -2.49098,1.09836 -5.06929,1.86744 -7.82813,1.64063 -2.46076,-0.21536 -4.85266,-0.76242 -7.16992,-1.62891 -2.91388,-1.09478 -5.70032,-2.47585 -8.2793,-4.23047 -3.03802,-2.12209 -5.91422,-4.46232 -8.57617,-7.04492 -1.28985,-1.32795 -2.5222,-2.70674 -3.69336,-4.13476 -0.21208,0.63318 -0.53712,1.25675 -1.26367,2.07031 -2.32969,2.60869 -6.36431,2.16204 -8.66992,-0.14453 -1.21852,-1.31201 -2.13592,-2.82283 -2.89648,-4.43555 -0.62411,0.57228 -1.26279,1.12974 -1.8711,1.7168 -1.09393,0.0202 -2.22207,0.32716 -3.2832,0.0605 -2.38527,-0.59933 -3.67892,-2.63653 -4.83203,-4.55273 -1.21718,-2.27747 -2.29933,-4.62314 -3.18555,-7.05078 -1.11195,-3.06332 -2.20171,-6.13782 -3.52344,-9.11914 -1.60594,-3.53423 -3.37483,-6.99326 -5.52343,-10.23438 -1.81486,-2.56297 -3.72235,-5.06067 -5.84961,-7.37109 0.37764,0.93005 0.72787,1.8725 1.01172,2.84179 1.21026,3.92238 2.21641,7.91168 2.81835,11.97657 0.64315,4.87409 0.8325,9.79476 0.37696,14.69922 -0.517,5.29015 -1.36119,10.59874 -3.53125,15.49609 -0.36312,0.80716 -0.70073,1.62693 -1.08985,2.42188 -0.33719,0.68886 -0.71541,1.35369 -1.0957,2.01757 -0.166,1.60749 -0.42329,3.20246 -0.88477,4.76367 -0.88619,2.46177 -1.60828,3.94969 -3.89843,5.50391 -0.44537,0.30225 -0.96467,0.5636 -1.50196,0.5957 -0.33243,0.0199 -0.66386,-0.0228 -0.99609,-0.0391 -0.86394,0.91131 -1.86462,1.97508 -3.16992,2.01563 -0.96129,0.0299 -1.78153,-0.008 -2.50781,-0.12696 -1.33473,0.65179 -2.71249,1.21623 -4.13477,1.63086 -0.79419,0.17614 -1.57795,0.39652 -2.38086,0.52735 -3.26276,0.53162 -6.64653,0.0515 -9.69922,-1.15625 -0.6454,-0.29457 -1.30577,-0.55622 -1.93554,-0.88282 -2.879,-1.49298 -5.28483,-3.77127 -7.1543,-6.39648 -0.41688,-0.67655 -0.8733,-1.33063 -1.25195,-2.0293 -1.72014,-3.17394 -2.44423,-6.80724 -3.1211,-10.31054 -0.81121,-4.99764 -1.32403,-10.04241 -1.70898,-15.08985 -0.36945,-4.8403 -0.77694,-9.67701 -1.34961,-14.49804 -0.22655,0.93505 -0.46088,1.86785 -0.66602,2.80859 -0.28969,1.40784 -0.56558,2.81868 -0.84375,4.22852 -0.16996,4.5153 -0.33954,9.03259 -0.70898,13.5371 -0.41355,5.48345 -0.87105,10.9668 -1.68555,16.40821 -0.60464,4.02879 -1.29296,8.05093 -2.41016,11.97461 -0.36529,1.23868 -1.26354,4.39292 -2.21289,5.1875 -1.04416,0.87397 -2.02676,2.56664 -3.36523,2.3164 -2.64323,-0.49418 -4.58122,-2.82077 -6.87109,-4.23047 -0.28141,-1.56343 -0.28466,-3.14214 -0.11133,-4.7207 0.0386,-0.48048 0.0924,-0.95928 0.13476,-1.43945 -0.98785,-0.69958 -1.84926,-1.53735 -2.45898,-2.60352 -1.01865,-1.98536 -1.62936,-4.10337 -1.89453,-6.32422 -0.40688,-2.99661 -0.60043,-6.01739 -0.54883,-9.04296 0,-3.64958 -9.5e-4,-7.29966 -0.002,-10.94922 -0.002,-4.38253 -0.004,-8.76397 -0.0137,-13.14649 -0.011,-4.28039 -0.0245,-8.56176 -0.0859,-12.84179 -0.0557,-3.31859 -0.10856,-6.64164 -0.4043,-9.94922 -0.15339,-1.53054 -0.39571,-3.05234 -0.73633,-4.55274 -0.10141,0.0674 -0.21082,0.1342 -0.31054,0.19922 -1.6917,1.23821 -3.23441,2.69222 -4.5625,4.31445 -2.07817,2.52667 -3.91343,5.21596 -5.65625,7.98438 -2.30735,3.63982 -4.36499,7.43244 -6.5254,11.16015 -2.32681,4.19891 -4.524,8.47003 -6.76171,12.7168 -2.15488,4.18151 -4.27168,8.38223 -6.36329,12.5957 -1.90442,3.77446 -3.92426,7.48477 -5.92773,11.20704 -1.71337,3.18443 -3.47046,6.34631 -5.19727,9.52343 -1.55111,2.72719 -3.15452,5.42961 -5.03124,7.94922 -1.53134,1.99573 -3.15404,4.01194 -5.53516,5.01953 -1.00794,0.13032 -2.00725,0.37373 -3.02344,0.39063 -0.46139,0.008 -0.93297,-0.11595 -1.34766,-0.31836 -2.28178,-1.11374 -3.3711,-2.22787 -4.09374,-4.59375 -0.3649,-1.89974 -0.35773,-3.71171 -0.13282,-5.63281 0.24465,-2.83007 0.58538,-5.6585 1.23633,-8.42774 0.90849,-3.74902 2.10346,-7.42088 3.58594,-10.98437 1.74743,-4.20706 3.65494,-8.35955 6.02539,-12.25782 2.44318,-4.06697 5.03802,-8.0401 7.89648,-11.83007 2.74108,-3.66644 5.61455,-7.22824 8.44922,-10.82227 2.73684,-3.43285 5.55748,-6.79743 8.375,-10.16406 2.21495,-2.69144 4.41692,-5.39612 6.4668,-8.2168 1.50068,-2.08149 2.93189,-4.21361 4.20508,-6.44336 0.81802,-1.44081 1.5862,-2.91657 2.1914,-4.46094 3.28755,-8.38939 10.81287,-7.02803 11.07813,-0.5664 1.53763,-0.43172 3.27217,-0.89813 4.83203,-0.36719 0.75867,0.25823 1.46567,0.64602 2.19922,0.96875 2.15055,1.46923 3.20157,3.72962 4.02734,6.10352 0.86889,2.71695 1.27989,5.54385 1.58008,8.37109 0.33606,3.62231 0.39924,7.26321 0.46094,10.89844 0.0624,4.33243 0.0747,8.66523 0.0859,12.99805 0.002,0.90293 5e-4,1.80604 0.002,2.70898 0.0614,-0.31884 0.1292,-0.63639 0.1914,-0.95508 0.0402,-1.06831 0.0809,-2.13704 0.125,-3.20508 0.22018,-5.15485 0.39777,-10.31074 0.7461,-15.45898 0.28984,-4.00315 0.6615,-8.0037 1.32812,-11.96289 0.46813,-2.79417 1.20768,-5.5176 2.28321,-8.13672 0.57577,-1.3083 1.24318,-2.60342 2.23242,-3.6543 0.27604,-0.29324 0.51308,-0.69628 0.90039,-0.80664 1.66569,-0.47465 3.40987,-0.60558 5.11523,-0.9082 0.66976,0.33896 1.43342,0.5347 2.00977,1.01562 2.19835,1.83435 2.88828,4.55574 3.67578,7.1543 1.16903,3.89897 1.89019,7.91157 2.60937,11.91211 0.94298,5.21746 1.60376,10.48052 2.22657,15.74414 0.67795,5.3973 1.11736,10.81788 1.53125,16.24024 0.37653,4.72786 0.81551,9.46416 1.5957,14.14453 0.58612,2.74454 0.98045,5.82573 2.73633,8.12109 1.07291,1.46618 2.53206,2.55936 4.23437,3.18164 1.6214,0.63397 3.4186,0.60339 5.06055,0.0527 0.35179,-0.10751 0.68166,-0.26285 1.01953,-0.4004 -0.0104,-0.24844 -0.0344,-0.49364 -0.0351,-0.74414 -0.0851,-3.55113 0.0399,-7.10491 0.0723,-10.65625 0.0885,-4.57171 0.21828,-9.1433 0.38477,-13.71289 0.1316,-4.9105 0.1221,-9.82407 0.33984,-14.73242 0.0782,-1.73017 0.18435,-3.45827 0.30469,-5.18555 -0.11653,-1.07029 -0.23694,-2.14013 -0.33008,-3.21289 -0.17721,-1.76833 -0.27918,-3.5319 -0.0566,-5.29882 0.0672,-0.31338 0.11713,-0.53242 0.17187,-0.77735 -0.0498,-1.50345 -0.0386,-3.00881 0.0488,-4.51562 0.11787,-2.43906 0.75973,-4.75409 1.7793,-6.95899 1.35457,-2.54116 2.98966,-3.90398 5.69727,-4.89844 3.34374,-0.85415 6.07003,0.0899 9.0371,1.58399 3.08445,1.73718 5.77531,4.03784 8.38672,6.40625 -0.16876,-0.72346 -0.34591,-1.44456 -0.47265,-2.17774 -0.33662,-1.91811 -0.3902,-3.72825 0.45312,-5.57031 0.26256,-0.57351 0.73437,-1.02425 1.10156,-1.53711 1.51202,-0.57214 2.94883,-1.40514 4.53516,-1.71679 0.64872,-0.12745 1.32097,0.19674 1.93359,0.44531 1.67167,0.67829 2.81407,1.97965 3.96485,3.28906 0.0649,0.0818 0.11557,0.17349 0.17969,0.25586 5.26003,-2.86649 4.12983,-4.52102 6.125,-1.1543 1.9033,3.12168 3.71085,6.29909 5.51171,9.48047 2.31772,4.15496 4.3895,8.43617 6.38672,12.75196 1.91439,4.35699 3.83254,8.71261 5.76758,13.06054 1.65977,3.7069 3.48867,7.33176 5.44336,10.89063 1.66748,2.7506 3.74193,5.19226 5.98242,7.48437 2.18169,2.07592 4.51251,3.9768 6.98438,5.69336 1.82213,1.22103 3.77588,2.19356 5.83008,2.94922 1.37188,0.49745 2.7661,0.87045 4.2207,0.9707 0.11269,-0.007 1.03504,-0.0625 1.03515,-0.0625 0.0277,-0.005 0.008,-0.0641 0.0332,-0.0762 0.44026,-0.21321 0.93482,-0.37738 1.38281,-0.58203 0.89646,-0.58321 1.60205,-1.3785 2.31641,-2.16406 0.91043,-1.30211 1.65771,-2.70702 2.40625,-4.10547 0.7904,-1.72558 1.60685,-3.43858 2.38476,-5.16992 0.82577,-1.71484 1.61996,-3.44395 2.53906,-5.11133 0.64288,-1.19422 1.25448,-2.40263 1.8125,-3.63867 0.5813,-1.23864 1.20502,-2.45603 1.89649,-3.63672 0.47783,-1.01292 1.09133,-1.93566 1.81445,-2.78906 0.56765,-0.66159 1.25155,-1.19054 1.95899,-1.69141 0.10905,-0.0772 -0.22153,0.14792 -0.32813,0.22852 -0.30034,0.26622 0.13405,-0.0816 0.47656,-0.36915 0.0321,-0.03 0.0361,-0.0381 0.0566,-0.0547 0.0336,-0.0271 0.0674,-0.0538 0.10352,-0.0781 0.0385,-0.0366 0.0993,-0.0852 0.125,-0.10937 0.01,-0.0238 0.0538,-0.10159 0.0644,-0.125 0.027,-0.33534 0.0392,-0.67159 0.0488,-1.00782 -0.0305,-0.9312 0.1866,-1.83613 0.41406,-2.73046 0.15976,-1.04412 0.61159,-2.0035 1.125,-2.91407 0.37876,-0.67241 0.88763,-1.23845 1.42383,-1.78125 -0.61825,-0.48526 -1.18445,-1.02218 -1.8457,-1.44922 -0.78733,-0.48376 -1.47632,-1.10571 -2.24023,-1.62109 -0.78885,-0.44907 -1.54121,-0.95558 -2.2754,-1.48828 -0.8836,-0.57009 -1.70777,-1.22208 -2.51953,-1.88867 -0.63974,-0.47324 -1.26945,-0.96099 -1.92773,-1.4082 -0.92861,-0.6221 -1.79733,-1.32057 -2.63867,-2.05469 -0.72586,-0.64439 -1.4279,-1.31705 -2.125,-1.99219 -0.33073,-0.20941 -0.60173,-0.50149 -0.92383,-0.72266 -0.061,-0.0419 0.22344,0.18251 0.15234,0.16211 -0.8249,-0.41458 -1.59398,-0.92505 -2.3789,-1.4082 -0.7907,-0.52778 -1.59385,-1.03704 -2.37696,-1.57617 -0.55652,-0.38581 -1.16844,-0.67432 -1.75586,-1.00977 -0.66378,-0.32755 -1.35283,-0.98602 -1.89453,-1.29687 -0.60073,-0.42748 -0.73932,-0.44561 -1.45117,-0.8711 0.27604,0.21677 -2.67514,-1.58929 -0.81055,-0.46484 -0.6676,-0.26169 -1.3265,-0.76853 -1.90039,-1.05469 -0.64724,-0.40536 -1.00585,-0.54596 -1.70898,-0.94922 0.0853,0.14089 -1.49375,-0.82666 -0.71094,-0.33203 -0.79763,-0.33251 -1.60156,-0.64087 -2.3789,-1.01953 -0.3943,-0.15313 -0.77888,-0.33131 -1.17969,-0.4668 -0.58123,-0.10679 -1.129,-0.3628 -1.68946,-0.55078 -0.79916,-0.32839 -1.59489,-0.66616 -2.36132,-1.0664 -0.33911,-0.10305 -0.86285,-0.42915 -1.14453,-0.54493 0.52327,0.26553 -0.99613,-0.36769 -1.18165,-0.43359 -0.74876,-0.33277 -1.49179,-0.65421 -2.21679,-1.03906 -1.03256,-0.69349 -1.19806,-0.85325 -1.92969,-1.41992 1.07019,0.88915 -1.7722,-1.34814 -0.77734,-0.5293 -0.86365,-0.68634 -0.64489,-0.46087 -1.26953,-1.10156 -0.14125,-0.14487 0.60722,0.53303 0.43945,0.41992 -0.038,-0.0256 -0.38811,-0.29689 -0.44141,-0.33789 -0.64636,-0.47308 -1.18128,-1.06511 -1.69531,-1.67383 -0.0822,-0.0974 0.15829,0.20088 0.24219,0.29688 -0.34771,-0.3167 -0.63098,-0.68822 -0.91797,-1.05665 -0.24706,-0.23101 -0.57906,-0.52887 -0.73242,-0.74218 -0.12064,-0.16779 0.5825,0.58655 0.43164,0.44531 -0.42196,-0.39505 -0.44784,-0.45354 -0.53516,-0.53906 -0.002,-0.002 -0.002,-3.2e-4 -0.004,-0.002 -0.009,-0.009 -0.0461,-0.0459 -0.0547,-0.0547 -0.0132,-8.4e-4 -0.0357,-0.0117 -0.0723,-0.0332 -0.75359,-0.55984 -1.08872,-0.78682 -1.4375,-1.07422 -0.0921,-0.0473 -0.20466,-0.0954 -0.38867,-0.19335 -0.67189,-0.44475 -0.89199,-0.54941 -1.3457,-0.81836 0.14104,0.0932 -0.36568,-0.14357 -0.54493,-0.22266 -1.35465,-0.59778 0.12668,-0.007 -0.45898,-0.17383 -0.81919,-0.30522 -1.66899,-0.49806 -2.50586,-0.74804 -0.85456,-0.30603 -1.72608,-0.53048 -2.61914,-0.6836 -1.11465,-0.25955 -2.24326,-0.42348 -3.38086,-0.53516 -1.53644,-0.21601 -3.07375,-0.39118 -4.62109,-0.5039 -1.63681,-0.10495 -3.27843,-0.133 -4.91797,-0.1582 -2.199,-0.0255 -4.39854,-0.0292 -6.59766,-0.0332 -2.75041,-0.0737 -5.4925,0.0964 -8.23242,0.3125 -2.89078,0.19535 -5.72691,0.76145 -8.54883,1.38867 -3.01806,0.6874 -5.99888,1.51905 -8.94336,2.47071 -10.36167,3.34892 -13.74338,-7.12854 -3.3789,-10.46875 3.27271,-1.05473 6.58515,-1.98142 9.93945,-2.74219 3.32288,-0.73599 6.66649,-1.37922 10.06836,-1.61523 3.03431,-0.23808 6.07354,-0.41901 9.11914,-0.34571 z m 76.39453,57.6875 c -0.0234,0.0223 -0.0457,0.0376 -0.0762,0.0664 0.13923,-0.11568 0.0978,-0.0763 0.19141,-0.14844 4.1e-4,-10e-4 0.002,-0.007 0.002,-0.008 -0.0412,0.0274 -0.0761,0.0622 -0.11719,0.0898 z m -0.0762,0.0664 c -0.0615,0.0511 -0.0232,0.0153 -0.084,0.0664 -0.0609,0.0569 -0.14603,0.13561 -0.10937,0.10157 0.14124,-0.13121 0.11621,-0.0949 0.19336,-0.16797 z M 360.9863,273.77538 c -0.0128,-0.009 -0.0223,-0.016 -0.0352,-0.0254 -0.0814,-0.0595 -0.0797,-0.0338 -0.15039,-0.082 -0.007,-0.002 -0.013,-0.005 -0.0195,-0.008 0.0968,0.0609 0.056,0.0235 0.20508,0.11523 z m -20.14649,-10.375 c 0.094,0.13824 -0.87266,-1.07397 -0.35546,-0.35351 0.0696,0.0662 0.22245,0.22082 0.35546,0.35351 z m -3.8789,-3.54101 c -0.006,-0.004 -0.0131,-0.008 -0.0195,-0.0117 0.0152,0.0161 0.0357,0.0247 0.0508,0.041 -0.0104,-0.01 -0.021,-0.0194 -0.0312,-0.0293 z m -0.0195,-0.0117 c -0.0285,-0.0301 -0.0647,-0.0488 -0.0937,-0.0781 -0.0893,-0.0535 -0.17853,-0.10818 -0.26758,-0.16211 0.12662,0.0724 0.23777,0.16418 0.36133,0.24024 z m -153.76758,-1.62305 c 8.57829,0.0452 13.33073,10.42102 3.49805,21.71289 -1.87496,2.1532 -3.7816,4.27811 -5.7129,6.38086 -1.48061,1.71467 -3.25673,3.12414 -4.97656,4.58398 -1.47082,1.27699 -3.11486,2.34085 -4.77148,3.35743 -0.0587,0.0317 -0.11743,0.0634 -0.17578,0.0957 -0.27219,0.2011 -0.54386,0.40142 -0.82227,0.59375 -0.008,0.006 -0.0278,0.019 -0.0371,0.0254 -0.87626,0.73936 -1.72727,1.35385 -2.77344,1.94727 -1.20167,0.94741 -2.63084,1.65014 -3.99023,2.30859 -1.21461,0.57504 -2.46984,1.0191 -3.66602,1.62109 -1.4083,0.66172 -2.80862,1.33089 -4.21679,1.99219 -0.87792,0.37233 -1.76414,0.71787 -2.56641,1.22266 -1.61664,1.10975 -3.37763,1.98506 -5.1582,2.79492 -1.49548,0.65708 -2.97062,1.33366 -4.51367,1.88281 0.3953,-0.29132 -3.19385,1.14944 -2.07813,0.79102 -1.51828,0.66865 -1.57038,0.73625 -2.91797,1.39062 -0.0105,0.005 -0.0348,0.016 -0.0469,0.0215 -0.8943,0.56139 -0.83382,0.54126 -2.5293,1.29101 -10.75637,4.75658 -6.48511,-4.27434 -3.33008,-12.17773 -0.14711,0.0951 -0.29999,0.18201 -0.44531,0.27929 -0.66095,0.39196 -1.17949,0.93303 -1.69922,1.48633 -0.79863,0.87467 -1.6142,1.73452 -2.4375,2.58594 -1.18844,1.27814 -2.47457,2.45644 -3.76172,3.63281 -1.75828,1.66715 -3.7508,3.05262 -5.77344,4.375 -2.04881,1.31483 -4.10927,2.60891 -6.19336,3.86719 -2.05286,1.29699 -4.23162,2.38177 -6.30468,3.64258 -1.48414,0.953 -2.95472,1.9227 -4.46875,2.82812 -9.345769,5.58893 -14.993366,-3.87136 -5.638674,-9.44531 1.503574,-0.8959 2.951739,-1.87564 4.433594,-2.80664 2.07941,-1.24354 4.23187,-2.35899 6.29297,-3.63477 1.97793,-1.19384 3.93454,-2.42223 5.8789,-3.66992 1.52547,-0.98692 3.03505,-2.01988 4.35352,-3.27734 1.12085,-1.02436 2.24543,-2.04198 3.27539,-3.16016 0.79361,-0.81991 1.57741,-1.64829 2.34766,-2.49023 1.10044,-1.16033 2.27228,-2.24961 3.6289,-3.10938 1.43736,-0.94331 2.91905,-1.83371 4.5,-2.51758 1.56164,-0.67549 2.98836,-0.99868 4.2461,-1.04882 0.71197,-0.0284 1.36542,0.0364 1.96289,0.16992 0.70456,-0.27418 1.3962,-0.64285 2.07422,-0.9375 0.10218,-0.0444 0.20844,-0.0793 0.3125,-0.11914 0.79506,-0.37039 1.59529,-0.74418 2.30078,-1.28125 1.63166,-0.99169 3.30919,-1.89761 5.09375,-2.58789 1.21515,-0.46634 2.35802,-1.15894 3.55469,-1.67578 0.61177,-0.30389 1.24445,-0.55545 1.86718,-0.83204 -0.44299,-1.62293 -1.12283,-2.44349 -2.45117,-1.13671 -0.0388,0.039 -0.0698,0.0704 -0.10156,0.10156 -0.29789,0.30939 -0.625,0.71441 -0.99024,1.24414 -0.2057,0.29833 -0.31059,0.66133 -0.5332,0.94726 -0.13076,0.16795 0.16554,-0.39352 0.27149,-0.57812 0.19217,-0.33491 0.40044,-0.66163 0.62109,-0.97852 0.10885,-0.15632 0.24342,-0.29106 0.36523,-0.4375 0.082,-0.0797 0.0764,-0.0728 0.14453,-0.13867 0.16426,-0.17481 0.3917,-0.40675 0.63477,-0.65234 l 0.004,-0.004 c 0.16293,-0.20445 0.34676,-0.43347 0.44531,-0.55078 0.003,-0.003 8.2e-4,-7.6e-4 0.004,-0.004 0.0434,-0.0607 0.087,-0.12127 0.13086,-0.18164 0.17172,-0.30984 0.35524,-0.61348 0.55664,-0.90429 0.43752,-0.65208 0.87842,-1.29902 1.36719,-1.91407 0.39466,-0.54884 0.78252,-1.1035 1.1875,-1.64453 0.49343,-0.71788 1.00452,-1.41823 1.57422,-2.07812 0.60598,-0.7556 1.23093,-1.49381 1.95117,-2.14453 0.53614,-0.51641 1.07672,-1.02964 1.64258,-1.51368 0.74247,-0.62871 0.55891,-0.39992 1.04492,-0.90624 0.61458,-0.50881 1.30183,-0.99493 1.62891,-1.2461 0.63262,-0.51904 1.28358,-1.01989 1.99023,-1.43555 0.93687,-0.65558 1.91313,-1.27103 3.00586,-1.64453 1.24459,-0.49521 2.48487,-0.99911 3.74024,-1.46679 1.59442,-0.59401 3.04039,-0.846 4.30468,-0.83399 0.62448,0.006 1.20373,0.0777 1.73633,0.20313 2.49731,-1.47681 4.92955,-2.22243 7.10938,-2.21094 z m -33.21485,20.26758 c -0.0418,0.0415 -0.0522,0.0506 -0.0781,0.0762 -0.0186,0.0229 -0.006,0.008 -0.0234,0.0293 0.032,-0.0324 0.0658,-0.0673 0.0957,-0.0977 0.002,-0.003 0.004,-0.005 0.006,-0.008 z m 20.7129,16.05859 c -0.004,0.002 -0.008,0.004 -0.0117,0.006 -0.0763,0.067 -0.14951,0.13045 -0.22461,0.19531 0.0123,-0.009 0.0248,-0.0168 0.0371,-0.0254 0.0665,-0.0586 0.10064,-0.0888 0.19922,-0.17578 z m 208.83984,15.47656 c -0.076,0.0633 -0.15197,0.1268 -0.22852,0.18946 -0.007,0.008 -0.009,0.0157 -0.0156,0.0234 0.0675,-0.0525 0.0928,-0.0949 0.24414,-0.21289 z m 6.81836,0.16016 c 0.008,0.008 0.0171,0.0175 0.0254,0.0254 0.0587,0.0177 0.20577,0.0662 0.15625,0.0449 -0.008,-0.003 -0.10183,-0.0401 -0.18164,-0.0703 z m 0.0273,0.0273 c 0.288,0.27516 0.59759,0.69952 0.85156,0.4336 -0.28743,-0.13751 -0.57835,-0.26826 -0.85156,-0.4336 z m -7.80664,1.27735 c -0.005,0.0127 -0.0106,0.0223 -0.0156,0.0351 -0.0133,0.0344 -0.0458,0.14007 -0.0332,0.10547 0.0343,-0.0947 0.0213,-0.0632 0.0488,-0.14062 z m 6.30078,8.33593 c 0.0303,-0.0289 -0.0421,0.0361 -0.0937,0.082 -0.009,0.0151 -0.0117,0.0192 -0.0215,0.0351 0.0446,-0.0451 0.0246,-0.0306 0.11523,-0.11719 z m -217.24414,41.2754 c -8.3e-4,0.0306 -0.005,0.0612 -0.006,0.0918 -0.002,0.0879 0.05,0.34737 0.043,0.25977 -0.01,-0.11722 -0.024,-0.23464 -0.0371,-0.35156 z m -64.9707,55.98632 c 2.52568,0.21048 4.81398,2.84638 4.61719,7.6543 0.0306,0.0379 0.061,0.0756 0.0918,0.11328 0.0985,-0.20682 0.18788,-0.41788 0.30664,-0.61523 2.0232,-2.63078 1.63784,-2.49414 8.66797,-0.56641 0.45756,0.12547 0.67517,0.55458 0.82617,1.05664 0.356,-0.34113 0.68513,-0.70754 1.07422,-1.01758 1.83949,-1.2084 4.57299,-1.64037 6.45508,-0.1875 0.89002,0.68709 1.49396,1.68981 2.1211,2.62305 0.38695,0.57592 0.45781,2.20715 0.51171,2.69336 -9.8e-4,0.37719 -0.0739,0.7475 -0.0957,1.12305 3.27795,-0.12702 6.55809,-0.19313 9.83984,-0.21289 11.12443,-0.0967 22.25034,-0.0185 33.375,-0.0508 13.74464,-0.008 27.48978,-0.016 41.23438,-0.0508 14.30883,-0.0402 28.61776,-0.0923 42.92578,-0.25781 13.29921,-0.1613 26.59739,-0.41028 39.89453,-0.68945 10.59392,-0.2205 21.18932,-0.45017 31.7793,-0.81446 5.56958,-0.20858 11.14357,-0.37947 16.69531,-0.89843 0.0183,-0.002 0.0171,-1.2e-4 0.0352,-0.002 0.27934,-0.0293 0.62809,-0.0667 1.29883,-0.1289 0.19375,-0.0179 0.56403,-0.24441 0.58203,-0.0508 0.004,0.041 0.01,0.0667 0.0137,0.10742 1.03276,0.11505 0.68301,0.99251 0.60742,4.39648 0.16321,0.89342 0.29411,1.5747 0.44727,2.21485 2.37386,-0.14671 4.74652,-0.31139 7.12109,-0.44727 6.16467,-0.35697 12.33597,-0.58062 18.50781,-0.76562 1.59806,0.036 3.20483,-0.20274 4.80274,-0.0899 0.29768,0.0211 0.88262,-0.19481 0.89062,0.10352 0.0282,1.08203 -0.0622,2.16148 -0.11914,3.24219 1.00914,0.004 2.01818,0.0277 3.02735,0.0293 7.90293,0.0597 15.8071,0.11946 23.70703,0.36524 2.28698,0.0807 4.57478,0.13947 6.86132,0.23047 0.62634,0.025 1.25384,0.0449 1.87891,0.0918 0.41628,0.0312 0.88949,-0.0776 1.24414,0.14258 1.66309,1.03247 3.12354,2.35924 4.68555,3.53906 -0.0689,0.26815 -0.10727,0.54759 -0.16406,0.82032 2.5175,-0.18297 5.03563,-0.35571 7.55273,-0.54493 0.38614,-0.0275 4.35481,-0.4875 4.37891,0.0352 0.11081,2.3973 0.27408,4.09486 0.41015,5.48633 2.18914,-0.12869 4.37678,-0.28038 6.56641,-0.40039 0.0633,-0.0143 0.11986,-0.0167 0.16601,-0.006 5.09908,-0.31944 3.40052,-0.50591 1.82813,10.46875 0.10662,-0.006 0.22718,0.039 0.32227,-0.01 0.11447,-0.0573 -0.11262,0.009 -0.32618,0.0371 -0.004,0.0272 -0.008,0.0352 -0.0117,0.0625 -0.055,0.38734 -0.77304,0.12299 -1.16015,0.17969 -0.62196,0.091 -1.2448,0.17557 -1.86719,0.26367 -1.21266,0.16891 -2.4343,0.25919 -3.65039,0.39844 1.52271,3.9822 1.08199,4.18802 -2.31055,4.38086 -0.0721,0.1666 -0.34285,0.12618 -0.63867,0.0605 -0.0641,0.003 -0.0748,0.01 -0.14062,0.0137 -5.82815,0.25432 -11.65684,0.50327 -17.48243,0.8125 -7.84044,0.41597 -15.6846,0.74186 -23.52929,1.0664 3.40502,0.12502 6.81122,0.21233 10.21484,0.38086 9.44432,0.48091 18.87732,1.21463 28.26367,2.36914 3.67284,0.43238 7.32119,1.10806 10.88672,2.09375 0.56877,0.15723 1.14398,0.2968 1.69727,0.50196 0.63406,0.23512 1.23823,0.54453 1.85742,0.8164 0.46469,0.28568 1.00038,0.48033 1.39453,0.85742 1.21499,1.1624 3.04136,3.15172 2.70508,5.14649 -0.2679,1.58908 -1.05803,3.06876 -1.88281,4.45312 -0.61167,1.02672 -3.08593,2.03233 -3.9043,2.43946 -2.97481,1.09522 -6.06359,1.8018 -9.18555,2.35742 3.53469,0.0508 7.07002,0.10205 10.60352,0.22461 4.02785,0.25731 8.1403,0.21641 12.08789,1.14062 3.57525,1.55708 3.39546,1.00555 3.03515,8.7168 -0.0176,0.37635 -0.27128,0.65031 -0.59179,0.88672 0.27654,1.57966 -0.38157,2.02602 -3.00586,2.39258 -3.26172,0.43278 -6.533,0.79126 -9.79688,1.20703 -1.24159,0.14694 -2.48611,0.27181 -3.72851,0.41211 1.62085,0.77895 0.0601,2.95446 -1.74024,10.32422 -0.10506,0.43006 -0.87908,0.11829 -1.32031,0.15429 -1.35233,0.1104 -3.10558,0.1742 -4.45898,0.23242 -8.05936,0.34955 -16.12767,0.49012 -24.19141,0.69922 -12.78657,0.28162 -25.57517,0.38572 -38.36328,0.57422 -16.16934,0.2284 -32.34109,0.32344 -48.51172,0.39844 -17.2189,0.14613 -34.43692,0.0278 -51.65234,-0.32227 -15.4874,-0.37069 -30.95798,-1.16612 -46.42383,-2.03515 -12.52287,-0.7729 -25.04422,-1.58296 -37.56445,-2.39649 -7.06675,-0.45631 -14.14013,-0.78772 -21.21485,-1.08789 -0.56267,-0.0243 -1.12483,-0.0478 -1.6875,-0.0723 -0.74504,-0.0325 -1.33367,-0.053 -2.05469,-0.10352 -0.1698,-0.0119 -0.50981,0.12741 -0.50781,-0.043 4.9e-4,-0.0461 -0.002,-0.0754 -0.002,-0.12109 -0.14787,-0.0712 -0.23735,-0.18087 -0.2461,-0.36524 -7.52189,-0.4135 -15.03267,-0.99041 -22.5332,-1.6875 -2.36924,-0.21995 -4.73278,-0.49518 -7.09765,-0.75585 -5.75847,0.11297 -11.51819,0.18806 -17.27735,0.2539 -11.07071,0.1158 -22.142035,0.16609 -33.212889,0.0645 -8.609283,-0.16352 -17.216979,-0.4022 -25.826172,-0.57226 -4.542613,-0.0844 -9.085882,-0.13997 -13.628906,-0.19727 -0.404858,0.0804 -0.92091,0.291 -0.978515,-0.0391 -2.954442,-0.0449 -2.514945,-0.47626 -1.203126,-5.91601 -1.045589,-4.30574 -1.243098,-4.65147 1.003907,-4.61914 0.004,-0.0222 0.0077,-0.0285 0.01172,-0.0508 0.07866,-0.43758 0.889298,-0.006 1.333984,-0.008 2.385472,-0.009 0.805588,0.0115 3.61914,-0.0469 7.370569,-0.20516 14.739963,-0.49216 22.105469,-0.83203 10.682257,-0.49347 21.359799,-1.06272 32.039063,-1.61524 0.156738,-0.57486 0.242695,-0.84899 0.414062,-1.50586 0.0017,-0.007 0.15084,0.01 0.169922,0.006 -0.163335,-0.56638 -0.04823,-0.29406 0.861328,0.0312 0.756311,0.0301 1.570693,0.0511 1.738283,0.0625 1.404,0.11978 2.80805,0.2312 4.21093,0.35742 0.31905,-2.22008 2.87453,-3.19713 4.56641,-3.72656 1.10353,-0.34536 2.35747,-0.17461 3.48633,-0.2793 4.25873,-10e-4 8.51336,0.24633 12.76758,0.41602 2.28784,0.11046 4.57547,0.22646 6.86328,0.33789 1.1873,-1.29814 1.31269,-2.37301 -1.97656,-2.74414 -0.0364,-0.004 -0.073,-0.008 -0.10938,-0.0117 -0.009,-6.8e-4 -0.0182,-7e-4 -0.0273,-0.002 -0.008,-0.001 -0.0155,-0.003 -0.0234,-0.004 0.0169,0.002 0.0339,0.004 0.0508,0.006 1.43162,0.10654 2.86623,0.16494 4.29883,0.25586 3.54981,0.21144 7.09795,0.431 10.6543,0.5 3.32446,0.12908 6.64988,0.23769 9.97461,0.35937 3.73575,-0.39662 7.47488,-0.77228 11.2246,-1.03125 11.56599,-0.83297 23.14437,-1.51694 34.74219,-1.68164 12.50951,-0.0979 25.01626,0.10302 37.51367,0.69532 12.04372,0.63829 24.07204,1.51335 36.07227,2.73242 5.70835,0.56325 11.41299,1.16558 17.11133,1.82031 -0.27963,-0.20275 -0.57151,-0.38421 -0.85742,-0.57617 0.0884,-2.83719 -0.38176,-5.7475 0.26367,-8.51172 0.16711,-0.71566 1.26938,-0.75766 1.95898,-1.01172 2.41169,-0.88849 5.16326,-0.36341 7.65235,-0.5293 7.87558,0.12737 15.74283,0.54134 23.61328,0.83399 11.51252,0.44504 23.03037,0.79961 34.55078,0.95703 11.41642,0.13782 22.83433,0.13015 34.24805,-0.19531 8.07347,-0.22696 16.15858,-0.50123 24.19726,-1.31836 -6.51746,-0.64023 -13.04511,-1.16152 -19.58594,-1.49805 -12.89026,-0.64013 -25.79288,-0.95205 -38.69921,-1.00195 -15.35733,-0.0961 -30.71683,-0.0453 -46.07422,-0.11719 -14.84356,-0.0578 -29.68802,-0.12257 -44.5293,-0.40234 -11.85049,-0.24993 -23.70219,-0.59752 -35.5293,-1.41602 -7.21781,-0.5584 -14.50397,-1.17432 -21.50976,-3.09766 -0.29524,-0.10952 -3.11765,-1.00929 -4.04297,-1.8164 -8.09283,-0.21507 -16.18582,-0.47313 -24.27149,-0.86914 -7.8559,-0.42252 -15.73088,-0.82734 -23.52734,-1.92578 -3.57511,-0.56523 -7.88866,-0.78394 -8.59961,-6.11328 -0.008,-0.0568 0.006,-0.0986 0,-0.1543 -5.18619,1.17385 -10.37957,2.31725 -15.58789,3.39258 -6.44625,1.32378 -12.92203,2.49579 -19.39453,3.68359 -1.16624,1.1389 -2.78938,1.39382 -4.38867,0.83203 -0.71334,0.12971 -1.42333,0.27681 -2.13672,0.40625 -0.75619,1.54632 -1.56699,3.06895 -2.7207,4.35547 -0.2531,0.22392 -1.72607,1.69314 -2.35352,1.74024 -4.1158,0.30859 -5.50328,0.40957 -7.40039,-2.77149 -0.154789,-0.37531 -0.323903,-0.74435 -0.464844,-1.125 -4.295612,0.65747 -8.603245,1.23396 -12.9375,1.5957 -4.697166,0.38566 -9.501023,0.80583 -14.164063,-0.0976 -1.856068,-0.86606 -4.582875,-1.48771 -4.945312,-4.12696 -0.630198,-4.58905 1.169402,-6.35888 4.560547,-8.17187 4.242389,-2.12652 8.707202,-3.74494 13.236328,-5.15039 3.138566,-0.98891 6.291997,-1.92902 9.453125,-2.84375 -1.553367,-2.42859 -1.546606,-4.49814 -0.392578,-7.55078 1.171687,-2.24343 2.629249,-4.30309 4.474609,-6.05078 0.02568,-0.0234 0.05436,-0.0431 0.08008,-0.0664 0.01549,-1.33528 0.01708,-2.67094 0.05273,-4.00586 0.03032,-1.05621 0.108268,-2.11029 0.154297,-3.16602 -3.068133,-5.22284 -0.949909,-9.23073 2.498047,-9.43359 1.069044,-1.09311 2.362954,-1.59638 3.613284,-1.49219 z m 336.64648,38.76758 c 0.002,-0.0118 0.002,-0.0156 0.004,-0.0273 -0.075,0.004 -0.14839,0.013 -0.22656,0.006 0.0364,0.0393 0.12523,0.0345 0.22265,0.0215 z m -320.3457,-2.89844 c -0.0247,0.003 -0.0495,0.003 -0.0742,0.006 -0.0496,0.0113 -0.0989,0.0239 -0.14844,0.0352 0.0742,-0.0139 0.14849,-0.0271 0.22266,-0.041 z m 40.25,9.14063 c 0.96502,0.42536 1.73223,1.2723 2.22852,0.004 -0.74256,0.007 -1.48638,-0.0271 -2.22852,-0.004 z m 277.62695,16.69531 c 0.0622,0.0545 0.12359,0.11483 0.1836,0.16992 0.0522,0.0479 -0.0977,-0.10299 -0.14649,-0.15429 -0.009,-0.006 -0.0279,-0.009 -0.0371,-0.0156 z m -140.16601,7.14258 c -0.2189,0.0153 -0.44014,0.007 -0.65821,0.0312 -0.13332,0.0151 0.27376,0.0557 0.40235,0.0176 0.0744,-0.0221 0.1698,-0.0341 0.25586,-0.0488 z" /></clipPath></defs><g
     inkscape:label="Layer 1"
     inkscape:groupmode="layer"
     id="layer1"
     transform="translate(-258.85369,25.321451)"><path
       style="display:inline;fill:#040404;stroke:none;stroke-width:0.999999"
       d="m 286.23418,126.38329 c -2.15176,-3.45592 -4.34289,-6.64664 -5.64641,-10.56 -4.61799,-13.86414 -1.77433,-32.970064 11.72642,-41.003454 2.96808,-1.7661 6.22465,-3.04936 9.6,-3.79208 7.49828,-1.65002 15.09121,-1.28447 22.71999,-1.28447 h 31.68 103.04001 c -0.82553,-4.25673 -1.98116,-8.96141 -5.14987,-12.13017 -3.1321,-3.13209 -7.58147,-4.05343 -11.81012,-4.55943 -8.07243,-0.96601 -16.6769,-0.26948 -24.64003,1.26663 -5.03822,0.9718 -10.09409,2.02428 -15.03998,3.39874 -24.72616,6.87126 -59.36281,20.57915 -77.43184,-5.57578 -2.38445,-3.45147 -4.44433,-7.15446 -5.63235,-11.19999 -2.71844,-9.25712 -1.84941,-20.16299 5.65282,-27.06297 9.45554,-8.6964996 23.52183,-7.5562496 35.17137,-10.7456796 13.42802,-3.67642997 26.7947,-10.67354 38.72001,-17.7444704 7.76807,-4.60604 17.30075,-11.52866 26.88,-10.63257 8.14265,0.76169 15.41779,4.05396 23.04,6.76422 8.97105,3.18981 18.16294,5.84912 27.19997,8.8614804 26.91995,8.97336003 53.90998,19.32288 78.08002,34.3760896 14.29493,8.90291 27.37716,19.41475 39.68001,30.8753 13.08624,12.1903 27.91763,26.84024 35.06317,43.54859 4.06802,9.512204 4.29683,19.915954 4.29683,30.080014 0,14.11642 -0.93721,28.13594 0.0302,42.24 1.47137,21.48601 1.92053,43.05876 -2.33258,64.32 -2.79212,13.95787 -8.04393,27.83142 -17.88468,38.4 -15.1883,16.31165 -38.36565,26.64235 -60.45135,28.74569 -10.91354,1.03937 -22.00377,0.11074 -32.96002,0.37901 -44.31076,1.0845 -88.77362,0.31522 -133.11998,0.31522 h -49.60164 c -9.04202,0 -18.27371,1.26198 -27.19999,-0.84938 -24.7682,-5.85842 -25.17942,-36.66969 -14.4,-54.51061 -20.68353,-2.78752 -30.99368,-24.32054 -24.74642,-42.87999 1.74552,-5.18563 5.47255,-12.61792 10.66641,-15.04003 v -0.63998 c -3.32242,-0.76883 -6.49844,-2.44475 -9.28,-4.39087 -18.8244,-13.17041 -17.2978,-42.94428 2.24001,-54.74396 3.4257,-2.06892 7.78707,-4.04856 11.83999,-4.22517 m -19.1084,29.12001 c -1.69889,13.83216 7.06633,25.16716 20.70841,27.64343 5.22641,0.94866 10.70656,0.51654 16,0.51654 h 27.2 c 27.94658,0 55.89347,0.045 83.83998,0 4.82196,-0.008 11.00058,0.51213 15.68001,-0.60763 9.31461,-2.22901 15.68825,-11.23854 16.5857,-20.51237 1.32242,-13.66545 -6.36268,-26.12069 -20.4257,-28.33954 -5.77357,-0.9109 -11.50352,-0.14967 -17.28,-0.1406 -11.41326,0.0189 -22.82672,0 -34.23999,0 -27.85672,0 -55.97884,-1.52674 -83.84001,-0.30727 -12.30944,0.53866 -22.71409,9.4182 -24.2284,21.74744 m 9.92001,57.91997 c -1.80765,14.7176 8.26355,25.09406 22.3084,27.64347 6.12762,1.11224 12.67034,0.51655 18.88,0.51655 h 32.64 48.95999 c 8.09397,0 16.26864,0.71524 24.32001,-0.0544 12.77983,-1.22147 22.06522,-9.68428 23.3057,-22.66571 0.97663,-10.22086 -1.17282,-22.15155 -12.10571,-25.75382 -5.73664,-1.89014 -12.28067,-1.44616 -18.24,-1.44616 h -28.16001 -60.47999 c -9.87487,0 -20.25815,-0.92757 -30.07999,0.0544 -11.61117,1.16107 -19.95496,10.3604 -21.3484,21.70545 m 9.91977,-114.240004 c -1.07478,8.986434 1.76183,22.290714 11.10863,26.212574 2.86491,1.20212 7.47973,0.34734 10.56,0.34734 h 24.32 59.19999 c 7.82752,0 15.89987,0.62865 23.67999,0.28649 12.01871,-0.52846 20.72938,-6.40921 22.02546,-19.16667 1.06273,-10.460604 -1.92499,-23.050624 -12.74544,-27.322964 -5.13872,-2.02896 -10.58275,-1.79701 -16.00002,-1.79701 h -22.08 -50.55998 c -9.39497,0 -19.15044,-0.73814 -28.48,0.41155 -11.87794,1.46374 -19.61379,9.19858 -21.02863,21.02842 m 9.91999,170.559994 c -1.17379,9.94212 2.62692,21.00862 12.70864,24.52963 8.45535,2.95298 18.99843,1.39037 27.84,1.39037 h 55.04 20.16 c 2.32951,0 6.2095,0.73845 8.31878,-0.32882 1.80147,-0.91154 3.28566,-3.26717 4.56,-4.79108 4.73601,-5.66358 7.49117,-11.86038 8.18691,-19.2 0.6364,-6.71406 -2.72976,-12.96775 -7.30692,-17.60001 -1.24162,-1.25654 -2.69122,-3.29008 -4.47878,-3.73829 -2.59854,-0.65156 -5.96394,-0.10167 -8.64,-0.10167 h -18.23996 -58.56 -21.76 c -2.7061,0 -6.79517,-0.75765 -9.28001,0.40913 -6.59879,3.09846 -7.80347,13.11923 -8.54863,19.43085 M 460.6342,77.742846 h -24 c 1.89131,2.69552 4.14304,5.01044 5.64147,7.99998 4.89559,9.76735 5.22679,21.660174 0.94171,31.680004 -1.83333,4.28689 -5.66937,7.18182 -7.54318,11.20002 16.66518,6.93872 24.10662,27.09989 17.45507,43.51998 -2.56649,6.33562 -7.43932,9.5743 -11.3751,14.72001 17.06775,7.97843 17.29713,35.26579 7.6684,48.96 -4.4109,6.2733 -10.15812,9.47013 -16.94838,12.48 1.89853,3.66452 5.22293,6.34375 6.90296,10.23999 3.81256,8.84179 2.85653,19.00342 -1.40171,27.51998 -1.71258,3.42516 -4.42488,6.2377 -6.14124,9.6 23.16552,0 46.28145,-0.32012 69.43998,-0.32012 17.04117,0 34.24663,0.68186 51.20001,-1.01409 9.21411,-0.92171 18.3606,-3.16747 26.88,-6.80269 8.30362,-3.54316 16.17161,-8.19602 23.04,-14.08025 13.66394,-11.70603 19.60811,-27.62087 22.16689,-44.983 3.36159,-22.80926 1.56684,-45.29677 0.56568,-68.16 -0.85077,-19.42942 4.70846,-43.12123 -4.77702,-61.119994 C 613.0424,85.316906 600.63365,72.935896 589.2742,62.354086 572.25272,46.497906 553.67101,32.838056 532.95418,22.145426 508.14638,9.3412564 481.60162,0.78516643 455.19417,-8.0173136 c -9.42194,-3.1406404 -20.93623,-9.6264204 -31.03997,-8.9314104 -8.89081,0.61157 -17.18706,7.0300804 -24.64002,11.3556304 -11.44978,6.64532 -23.81269,12.53061 -36.48,16.4476396 -12.94465,4.00282 -35.74233,0.93222 -36.67999,19.84815 -0.51259,10.34029 7.21487,22.10608 16.51999,26.22739 5.76305,2.5525 11.76531,2.65527 17.92,2.22399 24.37922,-1.7082 47.1172,-13.77343 71.68001,-14.37608 10.58294,-0.25965 22.66288,0.0703 29.52124,9.60469 3.98514,5.54007 5.11329,12.61485 6.13452,19.2 1.18072,7.61272 2.37845,15.27428 4.39264,22.71998 4.6704,17.265004 15.35913,31.576634 27.79283,44.160004 5.00081,5.06102 10.01004,10.11924 15.35876,14.8111 1.87532,1.64501 5.06468,3.76226 3.42961,6.6161 -2.04117,3.56281 -5.51202,2.11219 -7.9096,-0.004 -5.38492,-4.75182 -10.60127,-9.62461 -15.68001,-14.70369 -10.93973,-10.94045 -21.57846,-23.90593 -27.37633,-38.4 -3.99538,-9.988204 -5.52522,-20.539354 -7.50365,-31.039984"
       id="path39-9"
       sodipodi:nodetypes="cssssccsssssssssssssssssssssssscsccssccssscssssssccsscssssscssccsscssssscssccsscsssssssccsscccsscscscsscssssssssssssssssssssssscssc" /></g></svg>
